<svg width="34" height="34" viewBox="0 0 34 34" fill="none" xmlns="http://www.w3.org/2000/svg">
<path fill-rule="evenodd" clip-rule="evenodd" d="M15.1736 5.90233C15.7653 3.36589 19.2347 3.36589 19.8264 5.90233C20.0064 6.6752 20.5306 7.31215 21.237 7.61652C21.9434 7.9209 22.7471 7.85609 23.4 7.44211C25.5431 6.08433 27.9972 8.63522 26.6917 10.8654C26.2942 11.5441 26.232 12.3793 26.5243 13.1135C26.8167 13.8478 27.4284 14.3928 28.1708 14.5806C30.6097 15.1959 30.6097 18.8041 28.1708 19.4194C27.4277 19.6067 26.8152 20.1518 26.5226 20.8865C26.2299 21.6212 26.2922 22.457 26.6903 23.136C27.9958 25.3648 25.5431 27.9171 23.3986 26.5593C22.746 26.146 21.9429 26.0813 21.237 26.3853C20.531 26.6893 20.0069 27.3255 19.8264 28.0977C19.2347 30.6341 15.7653 30.6341 15.1736 28.0977C14.9936 27.3248 14.4694 26.6879 13.763 26.3835C13.0566 26.0791 12.2529 26.1439 11.6 26.5579C9.45694 27.9157 7.00278 25.3648 8.30833 23.1346C8.70582 22.4559 8.76798 21.6207 8.47566 20.8865C8.18333 20.1522 7.57163 19.6072 6.82917 19.4194C4.39028 18.8041 4.39028 15.1959 6.82917 14.5806C7.5723 14.3933 8.18476 13.8482 8.47742 13.1135C8.77009 12.3788 8.70778 11.543 8.30972 10.864C7.00417 8.63522 9.45694 6.08289 11.6014 7.44067C12.9903 8.31889 14.7903 7.54178 15.1736 5.90233Z" stroke="#202842" stroke-width="2" stroke-linecap="round" stroke-linejoin="round"/>
<circle cx="17.5" cy="17.5" r="4.5" stroke="#202842" stroke-width="2" stroke-linecap="round" stroke-linejoin="round"/>
</svg>
